:SAMPLES-PER-SECOND 30
:FULLY-SPECIFIED
:DEGREES
124
root  -33.1488 38.2702 28.5632 -9.26722 -6.16676 2.55109
RightUpLeg  -9.44359 2.13336 -9.6489
RightLeg  70.214 -5.25484 -16.6526
RightFoot  -5.00142 -0.16615 2.38336
RightToes  -1.74624e-010 0 -3.6325e-017
Spine  13.7835 1.51219 -2.43586
Spine1  2.45596 2.00753 -2.5284
HEad  -13.2005 3.73252 -0.175933
LeftShoulder1  7.16012 -10.3832 -44.9114
LeftArm  1.03832 25.1025 -20.4936
LeftForeArm  142.153 -78.6932 -125.334
LeftHand  -0.244104 0.0205437 5.32207
RightShoulder  6.4839 9.72742 42.6862
RightArm  8.97549 -18.5541 35.6488
RightForeArm  63.228 75.8522 38.5848
RightHand  -0.0775007 -6.78756 2.57911
LeftUpLeg  -17.849 13.097 -7.04834
LeftLeg  33.0504 5.19848 3.98908
LeftFoot  -6.10826 -0.323566 7.94589
LeftToes  1.28235e-010 -1.10989e-010 2.53219e-011
125
root  -33.2352 38.8655 29.5431 -8.18085 -7.70001 2.14314
RightUpLeg  -14.0667 2.68328 -8.02198
RightLeg  63.7183 -6.6834 -15.0352
RightFoot  -5.99895 -0.145311 2.26515
RightToes  -1.74624e-010 0 -3.6325e-017
Spine  13.1933 1.46078 -3.57463
Spine1  2.46056 1.34264 -0.375238
HEad  -13.0722 5.72291 -2.21889
LeftShoulder1  6.86698 -9.99721 -44.2705
LeftArm  -0.817824 22.777 -23.569
LeftForeArm  121.684 -80.3239 -105.67
LeftHand  -0.244104 0.0205437 5.32207
RightShoulder  6.21777 9.45739 41.7257
RightArm  7.56765 -20.0823 33.9191
RightForeArm  33.4969 67.4673 23.9744
RightHand  -0.122076 -2.61881 -3.06975
LeftUpLeg  -15.3497 14.2601 -6.06194
LeftLeg  29.3426 5.13783 3.46874
LeftFoot  -5.21248 -0.351395 7.14103
LeftToes  1.28235e-010 -1.10989e-010 2.53219e-011
126
root  -33.3514 39.5477 30.4729 -6.49408 -8.12798 1.64266
RightUpLeg  -17.1413 1.61994 -6.59037
RightLeg  52.909 -7.72029 -11.2391
RightFoot  -5.98319 -0.199742 3.35273
RightToes  -1.74624e-010 0 -3.6325e-017
Spine  12.4629 1.06517 -4.82849
Spine1  2.04844 0.294827 2.01875
HEad  -13.4977 7.84812 -4.93238
LeftShoulder1  6.49462 -9.3905 -43.8165
LeftArm  -3.30763 22.0602 -26.3458
LeftForeArm  109.753 -80.6672 -93.1405
LeftHand  -0.244104 0.0205437 5.32207
RightShoulder  5.87265 9.09317 40.4529
RightArm  7.88488 -21.9077 31.3754
RightForeArm  15.3039 62.55 20.7078
RightHand  -0.59363 0.953022 -11.3766
LeftUpLeg  -13.1461 15.3001 -5.36404
LeftLeg  24.7353 4.44653 2.60276
LeftFoot  -3.98654 -0.399359 6.58444
LeftToes  1.28235e-010 -1.10989e-010 2.53219e-011
127
root  -33.4594 40.1644 31.3615 -5.19327 -7.72614 0.828969
RightUpLeg  -18.0201 -1.10574 -4.92243
RightLeg  39.4314 -7.23294 -6.6274
RightFoot  -4.32663 -0.3096 4.57867
RightToes  -1.74624e-010 0 -3.6325e-017
Spine  12.538 0.379786 -4.44131
Spine1  1.29817 -0.529812 2.65342
HEad  -14.1713 8.69627 -5.25813
LeftShoulder1  6.40084 -9.20303 -43.8167
LeftArm  -5.81496 21.8487 -28.0064
LeftForeArm  97.3697 -80.5667 -79.7362
LeftHand  -0.244104 0.0205437 5.32207
RightShoulder  5.44588 8.63386 38.7867
RightArm  6.9683 -24.7262 29.3713
RightForeArm  14.1712 60.8611 19.2973
RightHand  -0.754094 0.420051 -15.1435
LeftUpLeg  -10.5239 16.4263 -4.21609
LeftLeg  20.2109 3.05173 1.45965
LeftFoot  -3.10189 -0.388506 5.65101
LeftToes  1.28235e-010 -1.10989e-010 2.53219e-011
128
root  -33.5728 40.5869 32.2509 -4.71019 -7.07755 -0.0156725
RightUpLeg  -17.1632 -5.53637 -2.92133
RightLeg  26.4567 -4.50527 -2.75358
RightFoot  -2.3127 -0.403301 4.91071
RightToes  -1.74624e-010 0 -3.6325e-017
Spine  13.1807 -0.241385 -2.98221
Spine1  0.65691 -0.896145 1.88581
HEad  -14.7374 9.09769 -5.10255
LeftShoulder1  6.41728 -9.22931 -43.84
LeftArm  -7.84694 21.5196 -29.1529
LeftForeArm  80.022 -79.5087 -61.8079
LeftHand  -0.244104 0.0205437 5.32207
RightShoulder  5.06276 8.25002 37.065
RightArm  4.11785 -27.9701 28.0766
RightForeArm  21.7981 59.7868 17.5772
RightHand  -0.385106 -2.04043 -13.1108
LeftUpLeg  -7.475 15.9645 -2.3548
LeftLeg  16.7225 2.82391 -0.0746876
LeftFoot  -2.31691 -0.390208 5.11181
LeftToes  1.28235e-010 -1.10989e-010 2.53219e-011
129
root  -33.7529 40.7991 33.1573 -4.67638 -6.10607 -0.326366
RightUpLeg  -15.4548 -10.1265 -1.50011
RightLeg  16.2793 -0.801908 -0.0548116
RightFoot  -0.895796 -0.49998 5.37205
RightToes  -1.74624e-010 0 -3.6325e-017
Spine  13.436 -0.685265 -2.16005
Spine1  0.61952 -1.08994 0.997448
HEad  -15.1437 9.10678 -4.40444
LeftShoulder1  6.30495 -9.09378 -43.5172
LeftArm  -9.10411 20.8886 -30.1487
LeftForeArm  62.7488 -76.8267 -44.1596
LeftHand  -0.244104 0.0205437 5.32207
RightShoulder  4.88752 8.13994 35.9958
RightArm  1.18077 -30.8347 26.9075
RightForeArm  21.8358 57.3465 15.7807
RightHand  -0.306873 -2.22605 -11.0622
LeftUpLeg  -4.83751 12.9189 -0.782808
LeftLeg  14.804 4.90143 -1.59626
LeftFoot  -2.18085 -0.41271 5.31849
LeftToes  1.28235e-010 -1.10989e-010 2.53219e-011
130
root  -34.0158 40.818 34.0851 -4.51711 -4.52433 0.185345
RightUpLeg  -13.502 -10.2116 -2.28262
RightLeg  9.48471 -1.25308 2.0486
RightFoot  1.05502 -0.604897 5.64257
RightToes  -1.74624e-010 0 -3.6325e-017
Spine  12.4213 -0.957738 -2.45067
Spine1  1.42897 -1.28042 0.488808
HEad  -14.7872 8.35854 -3.36362
LeftShoulder1  6.16618 -8.92261 -43.1234
LeftArm  -9.53356 20.1302 -30.479
LeftForeArm  50.8006 -72.5442 -30.9933
LeftHand  -0.244104 0.0205437 5.32207
RightShoulder  4.85433 8.18016 35.5747
RightArm  -0.404135 -33.4401 25.7365
RightForeArm  11.413 53.7686 14.4957
RightHand  -0.379358 -1.8185 -12.1259
LeftUpLeg  -3.31668 11.9146 -0.806663
LeftLeg  14.4413 4.74283 -2.10754
LeftFoot  -3.36835 -0.358545 5.42595
LeftToes  1.28235e-010 -1.10989e-010 2.53219e-011
131
root  -34.3076 40.7002 34.9956 -4.5891 -2.68625 1.11141
RightUpLeg  -11.7217 -8.3731 -3.70917
RightLeg  6.29028 -3.73695 3.34135
RightFoot  4.35275 -0.349935 2.86734
RightToes  -1.74624e-010 0 -3.6325e-017
Spine  11.4015 -1.04159 -2.89769
Spine1  2.25901 -1.36614 0.272998
HEad  -13.6135 7.15532 -2.5794
LeftShoulder1  6.14059 -8.87184 -43.1192
LeftArm  -9.44328 19.6106 -29.7564
LeftForeArm  45.1265 -67.3227 -22.3624
LeftHand  -0.244104 0.0205437 5.32207
RightShoulder  4.75203 8.0185 35.2742
RightArm  -0.931152 -35.4508 25.0318
RightForeArm  1.8678 49.3659 12.9839
RightHand  -0.502031 -1.25405 -14.0034
LeftUpLeg  -1.99228 12.7409 -1.62222
LeftLeg  14.9358 2.50253 -1.63932
LeftFoot  -5.55234 -0.213299 4.86408
LeftToes  1.28235e-010 -1.10989e-010 2.53219e-011
132
root  -34.572 40.5221 35.812 -5.33789 -1.27176 1.72401
RightUpLeg  -10.8854 -8.80569 -3.92173
RightLeg  7.62476 -3.98583 3.36459
RightFoot  6.94133 0.529552 -3.05683
RightToes  -1.74624e-010 0 -3.6325e-017
Spine  12.1728 -1.11397 -2.36065
Spine1  2.02248 -1.33935 -0.0834894
HEad  -12.6732 6.39294 -2.43619
LeftShoulder1  6.12005 -8.74146 -43.4496
LeftArm  -9.34448 19.6327 -28.3643
LeftForeArm  43.1201 -61.6722 -16.7509
LeftHand  -0.244104 0.0205437 5.32207
RightShoulder  4.52547 7.53408 35.0367
RightArm  -1.28419 -35.3219 25.2682
RightForeArm  -0.972204 42.1319 10.2451
RightHand  -0.704134 0.381321 -14.273
LeftUpLeg  -0.770574 13.9413 -2.18847
LeftLeg  16.7286 -0.142971 -0.462
LeftFoot  -7.95853 -0.0676427 3.85621
LeftToes  1.28235e-010 -1.10989e-010 2.53219e-011
133
root  -34.7933 40.3279 36.5187 -6.00335 -0.507948 1.494
RightUpLeg  -11.464 -10.2687 -3.04486
RightLeg  12.1027 -3.24179 2.7257
RightFoot  6.46156 1.2666 -7.81227
RightToes  -1.74624e-010 0 -3.6325e-017
Spine  13.7439 -1.48124 -0.307773
Spine1  1.12967 -1.28076 -1.14005
HEad  -12.8251 6.09193 -2.80456
LeftShoulder1  6.00856 -8.4463 -43.7206
LeftArm  -9.3981 20.1685 -26.9257
LeftForeArm  40.2991 -55.2621 -12.7922
LeftHand  -0.244104 0.0205437 5.32207
RightShoulder  4.32945 7.04287 35.0849
RightArm  -1.43554 -32.5973 26.3791
RightForeArm  -1.06466 31.4588 6.93154
RightHand  -0.914487 2.74096 -13.2438
LeftUpLeg  -1.61516 12.5408 -1.7775
LeftLeg  21.8423 0.143964 0.494538
LeftFoot  -9.50174 0.0229539 2.13317
LeftToes  1.28235e-010 -1.10989e-010 2.53219e-011
134
root  -34.993 40.2396 37.1487 -5.65088 -0.133645 0.43278
RightUpLeg  -12.2043 -11.1758 -1.58607
RightLeg  14.9797 -3.02807 2.30079
RightFoot  4.45399 1.23341 -8.61778
RightToes  -1.74624e-010 0 -3.6325e-017
Spine  13.9716 -1.85786 2.69075
Spine1  0.892264 -1.09223 -2.27652
HEad  -13.6699 5.50941 -3.49797
LeftShoulder1  5.89764 -8.23512 -43.681
LeftArm  -9.05453 20.8081 -25.686
LeftForeArm  34.9315 -47.8385 -9.80316
LeftHand  -0.244104 0.0205437 5.32207
RightShoulder  4.2835 6.91732 35.1373
RightArm  -2.13993 -29.4749 27.3906
RightForeArm  -0.246173 21.3877 4.94753
RightHand  -0.872567 3.7403 -11.2741
LeftUpLeg  -5.08972 10.9569 -0.291219
LeftLeg  29.2554 0.913236 0.881245
LeftFoot  -8.20714 0.0931817 -1.15607
LeftToes  1.28235e-010 -1.10989e-010 2.53219e-011
135
root  -35.2091 40.2583 37.7321 -4.62317 0.34703 -0.697953
RightUpLeg  -12.1467 -10.2459 -0.706345
RightLeg  14.9631 -4.71157 2.74877
RightFoot  3.04885 0.987944 -7.65086
RightToes  -1.74624e-010 0 -3.6325e-017
Spine  12.7828 -1.72351 4.99176
Spine1  1.4807 -0.715721 -2.25846
HEad  -14.429 4.77742 -4.24001
LeftShoulder1  5.7853 -8.1675 -43.0649
LeftArm  -7.69314 21.102 -24.4778
LeftForeArm  30.4357 -40.4114 -7.55921
LeftHand  -0.244104 0.0205437 5.32207
RightShoulder  4.2675 7.02345 34.5813
RightArm  -6.00226 -28.2858 27.2049
RightForeArm  4.45625 16.5637 5.34069
RightHand  -0.663407 3.36605 -9.04277
LeftUpLeg  -9.61393 10.6385 1.50188
LeftLeg  36.2354 0.618014 0.845812
LeftFoot  -5.05822 0.330609 -5.48721
LeftToes  1.28235e-010 -1.10989e-010 2.53219e-011
136
root  -35.4498 40.3755 38.2666 -3.81199 0.87014 -1.03495
RightUpLeg  -11.0198 -8.55199 -0.860289
RightLeg  13.076 -7.08417 3.77063
RightFoot  2.86197 0.969304 -7.60527
RightToes  -1.74624e-010 0 -3.6325e-017
Spine  11.7948 -1.19177 5.51871
Spine1  1.86443 -0.325842 -1.33171
HEad  -14.9163 4.5725 -4.55954
LeftShoulder1  5.46488 -7.92254 -41.4381
LeftArm  -5.77369 21.0981 -22.9258
LeftForeArm  29.9995 -34.1727 -5.86833
LeftHand  -0.244104 0.0205437 5.32207
RightShoulder  4.05964 6.84333 33.2824
RightArm  -7.43593 -28.4479 26.0299
RightForeArm  5.19546 17.0592 5.09978
RightHand  -0.660299 3.61615 -8.72806
LeftUpLeg  -12.8969 10.7568 2.50772
LeftLeg  40.0746 0.478683 0.814827
LeftFoot  -3.7669 0.55432 -8.11543
LeftToes  1.28235e-010 -1.10989e-010 2.53219e-011
